<?xml version="1.0" standalone="no"?>
<!DOCTYPE svg PUBLIC "-//W3C//DTD SVG 20010904//EN"
 "http://www.w3.org/TR/2001/REC-SVG-20010904/DTD/svg10.dtd">
<svg version="1.0" xmlns="http://www.w3.org/2000/svg"
 width="321.000000pt" height="321.000000pt" viewBox="0 0 321.000000 321.000000"
 preserveAspectRatio="xMidYMid meet">
<metadata>
Created by potrace 1.11, written by Peter Selinger 2001-2013
</metadata>
<g transform="translate(0.000000,321.000000) scale(0.100000,-0.100000)"
fill="#000000" stroke="none">
<path d="M905 2993 c-55 -22 -101 -58 -136 -107 l-30 -41 -237 -5 -237 -5 0
-1037 c0 -732 -3 -1038 -11 -1038 -37 0 -117 -35 -155 -69 -68 -60 -94 -118
-93 -210 1 -94 27 -154 92 -211 112 -99 288 -88 389 24 l36 40 134 -1 c73 0
134 2 134 6 1 3 2 71 3 150 l1 143 213 93 c117 51 215 89 217 84 3 -4 25 -63
49 -131 25 -68 59 -161 76 -208 18 -47 35 -96 39 -110 l7 -25 170 -2 c93 -1
176 1 185 3 13 4 64 116 75 164 0 3 3 12 7 20 3 8 59 162 123 341 l118 327
140 61 c78 33 148 63 157 66 13 5 15 -1 11 -42 -3 -26 -6 -248 -6 -493 l-1
-445 263 -1 c261 -2 262 -2 263 20 0 11 1 233 1 492 l1 472 52 4 c138 12 246
126 251 266 3 89 -19 146 -81 209 -54 53 -122 83 -190 83 l-32 0 -1 458 c0
251 -1 467 -1 480 l-1 22 -343 0 -344 0 -123 -350 -123 -350 -56 32 c-31 17
-74 41 -96 53 -22 12 -161 90 -309 174 -147 83 -272 151 -277 151 -4 0 3 23
17 51 70 139 19 304 -117 378 -56 30 -165 37 -224 14z m384 -507 c42 -24 92
-52 111 -63 19 -11 82 -46 140 -78 58 -33 126 -71 151 -85 182 -100 259 -146
259 -156 0 -6 -28 -89 -61 -185 -34 -96 -87 -248 -119 -339 -32 -91 -86 -243
-119 -339 -34 -96 -64 -177 -66 -179 -3 -3 -7 1 -9 9 -3 8 -16 46 -29 84 -35
100 -314 887 -342 965 -13 36 -46 128 -73 205 l-50 140 26 7 c15 4 41 19 57
32 17 14 34 25 39 26 5 0 43 -20 85 -44z m1125 -473 c-3 -65 -7 -119 -8 -120
-1 -1 -15 7 -32 18 l-31 19 36 100 c20 55 37 100 38 100 2 0 0 -53 -3 -117z
m-1614 -23 c21 -58 60 -163 85 -235 84 -233 296 -819 310 -858 20 -49 19 -50
-12 -64 -16 -6 -106 -46 -202 -87 -96 -42 -177 -76 -180 -76 -3 0 -6 93 -7
208 -1 114 -4 270 -8 347 -13 256 -15 309 -21 465 -4 85 -8 180 -10 210 -8
149 -7 237 2 210 3 -8 22 -62 43 -120z m1605 -202 c-2 -40 -7 -140 -10 -223
-4 -82 -8 -163 -9 -179 -1 -28 -9 -32 -146 -92 -79 -34 -146 -61 -148 -60 -1
2 4 19 12 37 8 19 61 162 117 319 56 157 104 290 106 297 4 9 15 7 43 -7 l38
-19 -3 -73z"/>
</g>
</svg>
